<?xml version="1.0" encoding="utf-8"?>
<!-- Generator: Adobe Illustrator 23.0.6, SVG Export Plug-In . SVG Version: 6.00 Build 0)  -->
<svg version="1.1" id="레이어_4" xmlns="http://www.w3.org/2000/svg" xmlns:xlink="http://www.w3.org/1999/xlink" x="0px"
	 y="0px" viewBox="0 0 600 600" style="enable-background:new 0 0 600 600;" xml:space="preserve">
<g>
	<g>
		<path d="M485.3,340.4c35.7,0,64.7-29,64.7-64.7S521,211,485.3,211c-8.5,0-16.5,1.6-23.9,4.6c-0.3-0.6-0.7-1.3-1.1-1.9
			c15.5-11.8,25.5-30.5,25.5-51.4c0-35.7-29-64.7-64.7-64.7c-24.6,0-46.1,13.8-57,34.2c-0.5-0.2-1.1-0.4-1.6-0.6
			c1-4.5,1.5-9.1,1.5-13.8c0-35.7-29-64.7-64.7-64.7s-64.7,29-64.7,64.7c0,4.7,0.5,9.4,1.5,13.8c-0.4,0.1-0.7,0.3-1.2,0.4
			c-10.8-20.8-32.5-35-57.4-35c-35.7,0-64.7,29-64.7,64.7c0,21.1,10.2,40,25.9,51.7c0,0.1-0.1,0.1-0.1,0.2c-7.4-3-15.5-4.6-24-4.6
			c-35.7,0-64.7,29-64.7,64.7c0,34.9,27.7,63.4,62.4,64.6c-24.2,9.3-41.3,32.9-41.3,60.3c0,35.7,29,64.7,64.7,64.7
			c16.7,0,32-6.4,43.6-16.9c0.2,0.2,0.4,0.4,0.6,0.5c-6.5,10.1-10.4,22.2-10.4,35c0,35.7,29,64.7,64.7,64.7
			c32.8,0,59.9-24.4,64.1-56c0.1,0,0.2,0,0.3,0c3.6,32.2,31.1,57.3,64.3,57.3c35.7,0,64.7-29,64.7-64.7c0-10.9-2.8-21.3-7.6-30.3
			c11.1,9,25.3,14.4,40.6,14.4c35.7,0,64.7-29,64.7-64.7c0-28.6-18.6-52.9-44.5-61.4c0-0.2,0.1-0.3,0.1-0.5
			C482.6,340.3,483.9,340.4,485.3,340.4z M485.3,226.8c26.9,0,48.7,21.9,48.7,48.7s-21.9,48.7-48.7,48.7c-0.5,0-1.2,0-1.7,0
			c0.6-6.3,1-12.9,1-19.4c0-26.8-5.7-52.3-16-75.2C473.8,227.9,479.4,226.8,485.3,226.8z M421.3,113.4c26.9,0,48.7,21.9,48.7,48.7
			c0,15.3-7.1,28.9-18.1,37.9c-18.4-26.6-43.5-48.2-72.9-62.2C387.4,123.3,403.1,113.4,421.3,113.4z M250.7,117.2
			c0-26.9,21.9-48.7,48.7-48.7c26.9,0,48.7,21.9,48.7,48.7c0,3.1-0.3,6.1-0.9,9.1c-15.3-4.1-31.4-6.3-47.9-6.3
			c-16.6,0-32.7,2.2-47.9,6.3C250.9,123.3,250.7,120.3,250.7,117.2z M128.9,161.1c0-26.9,21.9-48.7,48.7-48.7
			c18.4,0,34.5,10.3,42.7,25.4c-29.3,13.9-54.5,35.3-72.9,61.7C136.2,190.5,128.9,176.6,128.9,161.1z M66.1,273.1
			c0-26.9,21.9-48.7,48.7-48.7c5.8,0,11.5,1.1,16.6,2.9c-11,23.7-17.1,50-17.1,77.8c0,5.7,0.3,11.2,0.7,16.8c-0.1,0-0.1,0-0.2,0
			C88,322,66.1,300,66.1,273.1z M135.9,446.9c-26.9,0-48.7-21.9-48.7-48.7c0-21.4,13.9-39.7,33.2-46.3c8.4,31.8,25,60.4,47.5,83.1
			C159.1,442.4,148,446.9,135.9,446.9z M176.5,425.1c-20.4-20.8-35.5-46.8-43.2-75.7c-1.2-4.4-2.1-8.9-3-13.4
			c-0.1-0.7-0.2-1.5-0.4-2.2c-0.7-4.5-1.3-9-1.7-13.6c-0.4-4.9-0.6-10-0.6-15c0-25.5,5.6-49.8,15.6-71.6c2.1-4.7,4.5-9.3,7.1-13.8
			c0.1-0.1,0.2-0.3,0.2-0.4c2.6-4.5,5.4-8.9,8.4-13.1c16.8-23.9,39.6-43.3,66.2-56.1c4.8-2.4,9.7-4.4,14.8-6.3
			c0.1-0.1,0.3-0.1,0.4-0.2c5-1.8,10.1-3.4,15.3-4.8c13.9-3.6,28.6-5.7,43.7-5.7c15.1,0,29.8,1.9,43.7,5.7c5.2,1.4,10.3,3,15.3,4.8
			c0.2,0.1,0.5,0.2,0.7,0.3c5,1.8,10,4,14.8,6.3c26.8,13,49.7,32.6,66.6,56.8c3.1,4.4,5.9,8.9,8.6,13.6c0.2,0.3,0.4,0.7,0.6,1.2
			c2.6,4.7,5,9.4,7.2,14.4c9.3,21.1,14.5,44.5,14.5,69c0,5.8-0.3,11.5-0.9,17c-0.5,5.4-1.3,10.6-2.4,15.7c-0.2,0-0.5-0.1-0.7-0.1
			c0.2,0.1,0.5,0.1,0.7,0.2c-1.1,5.2-2.2,10.4-3.7,15.5c-8.5,28.6-24.1,54.1-44.9,74.4c-3.3,3.2-6.7,6.4-10.4,9.3
			c-0.5,0.4-1.1,0.9-1.6,1.3c-3.6,2.9-7.4,5.8-11.2,8.4c-23.6,16.2-51.4,26.6-81.4,29.2c-5,0.4-10.2,0.6-15.3,0.6
			c-0.2,0-0.3,0-0.5,0c0-0.4-0.1-0.7-0.1-1.2c0,0.4-0.1,0.7-0.1,1.2c-5.4,0-10.6-0.3-15.9-0.7c-30.2-2.9-58.2-13.7-81.8-30.2
			c-4.4-3.1-8.7-6.3-12.7-9.9l-0.1-0.1C184.2,432.5,180.2,428.9,176.5,425.1z M234.4,530.3c-26.9,0-48.7-21.9-48.7-48.7
			c0-9.2,2.6-17.9,7.1-25.3c25.8,18.3,56.6,30.2,89.9,33.2C278.8,512.6,258.7,530.3,234.4,530.3z M363.2,531.6
			c-24.6,0-45-18.3-48.3-42.1c33.2-2.8,63.9-14.2,89.9-32.2c4.6,7.4,7.2,16.2,7.2,25.5C411.9,509.7,390.1,531.6,363.2,531.6z
			 M509.6,402.2c0,26.9-21.9,48.7-48.7,48.7c-12.6,0-24.2-4.8-32.9-12.7c23-22.3,40.3-50.3,49.4-81.9
			C496.2,363.1,509.6,381.1,509.6,402.2z"/>
		<polygon points="224.3,264.3 238.6,264.3 238.6,287.6 368.8,287.6 368.8,274.3 257.2,274.3 257.2,264.3 368.8,264.3 368.8,251 
			257.2,251 257.2,234.1 378.2,234.1 378.2,409 396.8,409 396.8,220.8 257.2,220.8 257.2,189.1 268.9,189.1 268.9,211.3 
			396.8,211.3 396.8,198 287.5,198 287.5,189.1 396.8,189.1 396.8,176 287.5,176 287.5,176 268.9,176 268.9,176 257.2,176 
			257.2,176 238.6,176 238.6,220.8 224.3,220.8 224.3,176 205.7,176 205.7,234.1 238.6,234.1 238.6,251 205.7,251 205.7,412 
			224.3,412 		"/>
		<path d="M367.8,393.6H238.6v31.3h-23.1v13.3h175.3v-13.3h-23.1v-31.3H367.8z M349.2,425h-18.3v-18.1h18.3V425z M312.4,425H294
			v-18.1h18.4V425z M257.2,406.9h18.2V425h-18.2V406.9z"/>
		<path d="M368.8,375.9v-71.7H238.6v71.7H368.8z M350.2,362.7H313v-17.1h37.3V362.7z M350.2,332.3H313v-14.8h37.3V332.3z
			 M257.2,317.6h37.3v14.8h-37.3V317.6z M257.2,362.7v-17.1h37.3v17.1H257.2z"/>
	</g>
</g>
</svg>
